<?xml version="1.0" encoding="UTF-8" standalone="no"?>
<!-- Created with Inkscape (http://www.inkscape.org/) -->

<svg
   xmlns:dc="http://purl.org/dc/elements/1.1/"
   xmlns:cc="http://creativecommons.org/ns#"
   xmlns:rdf="http://www.w3.org/1999/02/22-rdf-syntax-ns#"
   xmlns:svg="http://www.w3.org/2000/svg"
   xmlns="http://www.w3.org/2000/svg"
   xmlns:sodipodi="http://sodipodi.sourceforge.net/DTD/sodipodi-0.dtd"
   xmlns:inkscape="http://www.inkscape.org/namespaces/inkscape"
   width="166.26921mm"
   height="166.26921mm"
   viewBox="0 0 166.26921 166.26921"
   version="1.1"
   id="svg26"
   inkscape:version="0.92.1 r15371"
   sodipodi:docname="if_like_115720-white.svg">
  <defs
     id="defs20" />
  <sodipodi:namedview
     id="base"
     pagecolor="#ffffff"
     bordercolor="#666666"
     borderopacity="1.0"
     inkscape:pageopacity="0.0"
     inkscape:pageshadow="2"
     inkscape:zoom="0.35"
     inkscape:cx="317.06666"
     inkscape:cy="254.20953"
     inkscape:document-units="mm"
     inkscape:current-layer="layer1"
     showgrid="false"
     fit-margin-top="0"
     fit-margin-left="0"
     fit-margin-right="0"
     fit-margin-bottom="0"
     inkscape:window-width="1366"
     inkscape:window-height="716"
     inkscape:window-x="-8"
     inkscape:window-y="-8"
     inkscape:window-maximized="1" />
  <metadata
     id="metadata23">
    <rdf:RDF>
      <cc:Work
         rdf:about="">
        <dc:format>image/svg+xml</dc:format>
        <dc:type
           rdf:resource="http://purl.org/dc/dcmitype/StillImage" />
        <dc:title></dc:title>
      </cc:Work>
    </rdf:RDF>
  </metadata>
  <g
     inkscape:label="Layer 1"
     inkscape:groupmode="layer"
     id="layer1"
     transform="translate(-21.942779,-49.823732)">
    <g
       transform="matrix(5.1959127,0,0,5.1959127,21.942779,49.823732)"
       id="like"
       style="fill:#ffffff">
      <path
         d="M 29.164,10.472 C 27.914,10.144 24.975,10.148 20.676,10.034 20.879,9.096 20.926,8.25 20.926,6.748 20.926,3.16 18.312,0 16,0 14.367,0 13.021,1.335 13,2.977 12.978,4.991 12.355,8.469 9,10.233 8.754,10.363 8.05,10.71 7.947,10.755 L 8,10.8 C 7.475,10.347 6.747,10 6,10 H 3 c -1.654,0 -3,1.346 -3,3 v 16 c 0,1.654 1.346,3 3,3 h 3 c 1.19,0 2.186,-0.719 2.668,-1.727 0.012,0.004 0.033,0.01 0.047,0.012 0.066,0.018 0.144,0.037 0.239,0.062 0.018,0.005 0.027,0.007 0.046,0.012 0.576,0.143 1.685,0.408 4.055,0.953 0.508,0.116 3.192,0.688 5.972,0.688 h 5.467 c 1.666,0 2.867,-0.641 3.582,-1.928 0.01,-0.02 0.24,-0.469 0.428,-1.076 0.141,-0.457 0.193,-1.104 0.023,-1.76 1.074,-0.738 1.42,-1.854 1.645,-2.58 0.377,-1.191 0.264,-2.086 0.002,-2.727 0.604,-0.57 1.119,-1.439 1.336,-2.766 0.135,-0.822 -0.01,-1.668 -0.389,-2.372 0.566,-0.636 0.824,-1.436 0.854,-2.176 l 0.012,-0.209 C 31.994,14.275 32,14.194 32,13.906 32,12.643 31.125,11.032 29.164,10.472 Z M 7,29 c 0,0.553 -0.447,1 -1,1 H 3 C 2.447,30 2,29.553 2,29 V 13 c 0,-0.553 0.447,-1 1,-1 h 3 c 0.553,0 1,0.447 1,1 z M 29.977,14.535 C 29.957,15.029 29.75,16 28,16 c -1.5,0 -2,0 -2,0 -0.277,0 -0.5,0.224 -0.5,0.5 0,0.276 0.223,0.5 0.5,0.5 0,0 0.438,0 1.938,0 1.5,0 1.697,1.244 1.6,1.844 C 29.414,19.59 29.064,21 27.375,21 25.688,21 25,21 25,21 c -0.277,0 -0.5,0.223 -0.5,0.5 0,0.275 0.223,0.5 0.5,0.5 0,0 1.188,0 1.969,0 1.688,0 1.539,1.287 1.297,2.055 C 27.947,25.064 27.752,26 25.625,26 c -0.719,0 -1.631,0 -1.631,0 -0.277,0 -0.5,0.223 -0.5,0.5 0,0.275 0.223,0.5 0.5,0.5 0,0 0.693,0 1.568,0 1.094,0 1.145,1.035 1.031,1.406 -0.125,0.406 -0.273,0.707 -0.279,0.721 C 26.012,29.672 25.525,30 24.494,30 h -5.467 c -2.746,0 -5.47,-0.623 -5.54,-0.639 -4.154,-0.957 -4.373,-1.031 -4.634,-1.105 0,0 -0.846,-0.143 -0.846,-0.881 L 8,13.563 C 8,13.094 8.299,12.67 8.794,12.521 8.856,12.497 8.94,12.471 9,12.446 13.568,10.554 14.959,6.406 15,3 c 0.006,-0.479 0.375,-1 1,-1 1.057,0 2.926,2.122 2.926,4.748 0,2.371 -0.096,2.781 -0.926,5.252 10,0 9.93,0.144 10.812,0.375 1.094,0.313 1.188,1.219 1.188,1.531 0,0.343 -0.01,0.293 -0.023,0.629 z"
         id="path4"
         style="clip-rule:evenodd;fill:#ffffff;fill-rule:evenodd"
         inkscape:connector-curvature="0" />
      <path
         d="M 4.5,26 C 3.672,26 3,26.672 3,27.5 3,28.328 3.672,29 4.5,29 5.328,29 6,28.328 6,27.5 6,26.672 5.328,26 4.5,26 Z m 0,2 C 4.225,28 4,27.775 4,27.5 4,27.225 4.225,27 4.5,27 4.775,27 5,27.225 5,27.5 5,27.775 4.775,28 4.5,28 Z"
         id="path6"
         style="clip-rule:evenodd;fill:#ffffff;fill-rule:evenodd"
         inkscape:connector-curvature="0" />
    </g>
  </g>
</svg>
