<?xml version="1.0" encoding="UTF-8" standalone="no"?>
<svg
   xmlns:dc="http://purl.org/dc/elements/1.1/"
   xmlns:cc="http://creativecommons.org/ns#"
   xmlns:rdf="http://www.w3.org/1999/02/22-rdf-syntax-ns#"
   xmlns:svg="http://www.w3.org/2000/svg"
   xmlns="http://www.w3.org/2000/svg"
   xmlns:sodipodi="http://sodipodi.sourceforge.net/DTD/sodipodi-0.dtd"
   xmlns:inkscape="http://www.inkscape.org/namespaces/inkscape"
   version="1.1"
   viewBox="0 0 234 234"
   enable-background="new 0 0 234 234"
   id="svg2"
   inkscape:version="0.91 r13725"
   sodipodi:docname="like-white.svg">
  <metadata
     id="metadata14">
    <rdf:RDF>
      <cc:Work
         rdf:about="">
        <dc:format>image/svg+xml</dc:format>
        <dc:type
           rdf:resource="http://purl.org/dc/dcmitype/StillImage" />
        <dc:title></dc:title>
      </cc:Work>
    </rdf:RDF>
  </metadata>
  <defs
     id="defs12" />
  <sodipodi:namedview
     pagecolor="#ffffff"
     bordercolor="#666666"
     borderopacity="1"
     objecttolerance="10"
     gridtolerance="10"
     guidetolerance="10"
     inkscape:pageopacity="0"
     inkscape:pageshadow="2"
     inkscape:window-width="735"
     inkscape:window-height="480"
     id="namedview10"
     showgrid="false"
     inkscape:zoom="1.008547"
     inkscape:cx="117"
     inkscape:cy="117"
     inkscape:window-x="0"
     inkscape:window-y="0"
     inkscape:window-maximized="0"
     inkscape:current-layer="svg2" />
  <g
     id="g4"
     transform="matrix(-1,0,0,1,234,0)"
     style="fill:#ffffff">
    <path
       d="m 228,91.412 -52.225,0 -44.931,-70.463 c -2.877,-4.512 -7.543,-7.67 -12.802,-8.664 -5.254,-0.992 -10.754,0.243 -15.08,3.393 -11.074,8.065 -15.473,22.667 -10.697,35.507 l 16.12,43.341 -87.945,0 C 9.17,94.527 0,103.696 0,114.967 c 0,5.632 2.29,10.74 5.988,14.44 C 2.29,133.109 0,138.216 0,143.848 c 0,6.771 3.323,12.765 8.409,16.487 -2.638,3.443 -4.224,7.731 -4.224,12.393 0,7.658 4.239,14.336 10.487,17.837 -2.058,3.189 -3.267,6.975 -3.267,11.044 0,11.271 9.17,20.44 20.44,20.44 l 196.155,0 c 3.313,0 6,-2.687 6,-6 l 0,-118.637 c 0,-3.313 -2.687,-6 -6,-6 z m -207.56,15.115 1.331,0 31.016,0 c 4.654,0 8.44,3.786 8.44,8.44 0,4.654 -3.786,8.44 -8.44,8.44 l -32.347,0 c -4.654,0 -8.44,-3.786 -8.44,-8.44 0,-4.654 3.786,-8.44 8.44,-8.44 z M 12,143.848 c 0,-4.654 3.786,-8.44 8.44,-8.44 l 32.347,0 4.31,0 c 4.654,0 8.44,3.786 8.44,8.44 0,4.654 -3.786,8.44 -8.44,8.44 l -32.471,0 -4.186,0 c -4.654,0 -8.44,-3.786 -8.44,-8.44 z m 4.186,28.881 c 0,-4.654 3.786,-8.44 8.44,-8.44 l 32.471,0 1.518,0 c 4.653,0 8.439,3.786 8.439,8.44 0,4.654 -3.786,8.44 -8.439,8.44 l -26.768,0 -7.221,0 c -4.654,0 -8.44,-3.786 -8.44,-8.44 z m 53.834,37.321 -38.173,0 c -4.654,0 -8.44,-3.786 -8.44,-8.44 0,-4.654 3.786,-8.44 8.44,-8.44 l 26.768,0 11.405,0 c 4.654,0 8.44,3.786 8.44,8.44 0,4.653 -3.786,8.44 -8.44,8.44 z m 18.594,0 c 1.175,-2.577 1.846,-5.428 1.846,-8.44 0,-8.943 -5.782,-16.544 -13.797,-19.31 1.521,-2.858 2.391,-6.113 2.391,-9.571 0,-6.035 -2.645,-11.451 -6.817,-15.196 3.282,-3.628 5.301,-8.419 5.301,-13.685 0,-6.806 -3.357,-12.83 -8.489,-16.547 2.61,-3.433 4.179,-7.698 4.179,-12.334 0,-3.012 -0.671,-5.864 -1.846,-8.44 l 28.672,0 c -3.148,3.671 -5.672,7.895 -7.436,12.551 -3.99,10.539 -3.639,22 0.992,32.273 4.629,10.273 12.982,18.128 23.521,22.119 4.859,1.84 9.914,2.757 14.958,2.757 5.896,0 11.779,-1.253 17.315,-3.748 3.021,-1.361 4.367,-4.915 3.005,-7.936 -1.36,-3.02 -4.911,-4.367 -7.935,-3.005 -7.352,3.313 -15.551,3.566 -23.094,0.709 -7.541,-2.855 -13.518,-8.477 -16.831,-15.828 -3.313,-7.351 -3.564,-15.553 -0.709,-23.093 2.855,-7.541 8.477,-13.518 15.827,-16.831 2.879,-1.297 4.26,-4.603 3.159,-7.562 L 103.512,47.001 c -2.909,-7.82 -0.23,-16.713 6.514,-21.625 1.685,-1.227 3.741,-1.689 5.787,-1.302 2.048,0.387 3.792,1.568 4.913,3.325 l 47.785,74.939 -0.033,81.814 c -0.004,9.706 3.626,18.849 10.233,25.896 l -90.097,0 z m 133.386,0.002 -1.849,0 -13.792,0 c -6.915,0 -13.415,-2.693 -18.304,-7.584 -4.889,-4.891 -7.58,-11.392 -7.577,-18.307 l 0.033,-80.746 41.489,0 0,106.637 z"
       id="path6"
       inkscape:connector-curvature="0"
       style="fill:#ffffff" />
    <circle
       cx="204.58"
       cy="191.772"
       r="7.6490002"
       id="circle8"
       style="fill:#ffffff" />
  </g>
</svg>
