<?xml version="1.0" encoding="UTF-8" standalone="no"?>
<!-- Creator: CorelDRAW -->

<svg
   xmlns:dc="http://purl.org/dc/elements/1.1/"
   xmlns:cc="http://creativecommons.org/ns#"
   xmlns:rdf="http://www.w3.org/1999/02/22-rdf-syntax-ns#"
   xmlns:svg="http://www.w3.org/2000/svg"
   xmlns="http://www.w3.org/2000/svg"
   xmlns:sodipodi="http://sodipodi.sourceforge.net/DTD/sodipodi-0.dtd"
   xmlns:inkscape="http://www.inkscape.org/namespaces/inkscape"
   xml:space="preserve"
   width="190.2187mm"
   height="175.22186mm"
   style="clip-rule:evenodd;fill-rule:evenodd;image-rendering:optimizeQuality;shape-rendering:geometricPrecision;text-rendering:geometricPrecision"
   viewBox="0 0 190.2187 175.22186"
   id="svg2"
   version="1.1"
   inkscape:version="0.91 r13725"
   sodipodi:docname="Graphic1.svg"><metadata
     id="metadata96"><rdf:RDF><cc:Work
         rdf:about=""><dc:format>image/svg+xml</dc:format><dc:type
           rdf:resource="http://purl.org/dc/dcmitype/StillImage" /><dc:title></dc:title></cc:Work></rdf:RDF></metadata><sodipodi:namedview
     pagecolor="#ffffff"
     bordercolor="#666666"
     borderopacity="1"
     objecttolerance="10"
     gridtolerance="10"
     guidetolerance="10"
     inkscape:pageopacity="0"
     inkscape:pageshadow="2"
     inkscape:window-width="1280"
     inkscape:window-height="973"
     id="namedview94"
     showgrid="false"
     fit-margin-top="0"
     fit-margin-left="0"
     fit-margin-right="0"
     fit-margin-bottom="0"
     inkscape:zoom="1.2685914"
     inkscape:cx="257.08323"
     inkscape:cy="321.50109"
     inkscape:window-x="0"
     inkscape:window-y="0"
     inkscape:window-maximized="1"
     inkscape:current-layer="svg2" /><defs
     id="defs4"><style
       type="text/css"
       id="style6"><![CDATA[
    .fil0 {fill:#84C225}
    .fil1 {fill:#84C225;fill-rule:nonzero}
    .fil2 {fill:#DB214C;fill-rule:nonzero}
   ]]></style></defs><g
     id="Layer_x0020_1"
     transform="translate(-9.8914423,-60.8892)"><metadata
       id="CorelCorpID_0Corel-Layer" /><g
       id="_138315080"><g
         id="g11"><g
           id="g13"><g
             id="g15"><path
               id="_135458744"
               class="fil0"
               d="m 153.748,164.245 c 7.9548,0.6825 17.109,-0.1757 18.589,-1.3364 -0.1393,-1.5474 -7.766,-3.0483 -15.7208,-3.7309 -7.9548,-0.6825 -11.5605,0.0248 -13.0912,1.2587 0.232,1.5101 2.2683,3.1261 10.223,3.8086 z"
               inkscape:connector-curvature="0"
               style="fill:#84c225" /><path
               id="_135661592"
               class="fil0"
               d="m 154.464,161.575 c 7.2281,0.6202 14.3245,1.137 15.2403,1.1073 -0.6382,-0.184 -7.8502,-0.874 -15.0784,-1.4942 -7.2281,-0.6202 -10.1657,-0.7867 -11.1018,-0.7522 0.7073,0.1861 3.7117,0.5189 10.9399,1.1391 z"
               inkscape:connector-curvature="0"
               style="fill:#84c225" /><path
               id="_20246664"
               class="fil0"
               d="m 140.18,160.423 c 7.227,0.6203 14.3234,1.1387 15.2379,1.1087 -0.6365,-0.1849 -7.8495,-0.8733 -15.0781,-1.4944 l -0.7481,-0.0637 -0.397,0.364 0.9853,0.0854 z"
               inkscape:connector-curvature="0"
               style="fill:#84c225" /></g><g
             id="g20"><path
               id="_20228048"
               class="fil0"
               d="m 97.0581,180.285 c 8.9935,1.5421 17.8341,2.9428 18.9837,3.0019 -0.7783,-0.2991 -9.7471,-1.9251 -18.7426,-3.4685 l -0.9311,-0.159 -0.5362,0.4143 1.2262,0.2113 z"
               inkscape:connector-curvature="0"
               style="fill:#84c225" /><path
               id="_20177208"
               class="fil0"
               d="m 114.024,186.496 c 9.8993,1.6972 21.1026,1.6051 23.0806,0.3066 -0.011,-1.9543 -9.4124,-4.6427 -19.3117,-6.3399 -9.8993,-1.6972 -14.4939,-1.1921 -16.5432,0.1927 0.131,1.9174 2.8751,4.1434 12.7743,5.8406 z"
               inkscape:connector-curvature="0"
               style="fill:#84c225" /><path
               id="_20177088"
               class="fil0"
               d="m 114.843,183.241 c 8.995,1.5422 17.8358,2.9408 18.9869,3.0004 -0.7805,-0.2981 -9.748,-1.9261 -18.743,-3.4683 -8.995,-1.5422 -12.6597,-2.0617 -13.8367,-2.1174 0.8668,0.3081 4.5978,1.0432 13.5928,2.5853 z"
               inkscape:connector-curvature="0"
               style="fill:#84c225" /></g><g
             id="g25"><path
               id="_18771488"
               class="fil0"
               d="m 116.076,170.544 c 7.9438,0.6818 15.7441,1.2517 16.7494,1.2187 -0.6997,-0.2033 -8.6281,-0.9599 -16.5738,-1.6427 l -0.8223,-0.0699 -0.4364,0.4 1.0831,0.0939 z"
               inkscape:connector-curvature="0"
               style="fill:#84c225" /><path
               id="_20246704"
               class="fil0"
               d="m 131.682,174.635 c 8.7438,0.7502 18.1143,-0.0835 19.7411,-1.3594 -0.1531,-1.7009 -8.5836,-3.0516 -17.3274,-3.8018 -8.7438,-0.7503 -12.66,-0.2719 -14.3425,1.0844 0.255,1.6598 3.185,3.3266 11.9288,4.0768 z"
               inkscape:connector-curvature="0"
               style="fill:#84c225" /><path
               id="_139246864"
               class="fil0"
               d="m 131.778,171.81 c 7.9451,0.6817 15.7454,1.2498 16.752,1.2171 -0.7014,-0.2022 -8.6289,-0.9607 -16.574,-1.6424 -7.9451,-0.6817 -11.1741,-0.8648 -12.203,-0.8268 0.7774,0.2045 4.0799,0.5704 12.025,1.2521 z"
               inkscape:connector-curvature="0"
               style="fill:#84c225" /></g><g
             id="g30"><path
               id="_139155200"
               class="fil0"
               d="m 91.4556,159.401 c 7.4582,-8.9139 16.9783,-16.6242 19.3466,-16.4708 1.0387,2.3164 -5.4672,12.0538 -12.9255,20.9677 -7.4582,8.9139 -11.6132,11.5239 -14.0881,11.3182 -0.9174,-2.3565 0.2087,-6.9012 7.667,-15.8151 z"
               inkscape:connector-curvature="0"
               style="fill:#84c225" /><path
               id="_139148120"
               class="fil0"
               d="m 93.8929,162.675 c 6.777,-8.0997 13.5006,-15.9221 14.4417,-16.7959 -0.4999,0.8969 -7.2076,9.0787 -13.9845,17.1783 -6.777,8.0997 -9.5964,11.2711 -10.5615,12.1584 0.5676,-0.9689 3.3274,-4.4412 10.1043,-12.5408 z"
               inkscape:connector-curvature="0"
               style="fill:#84c225" /><path
               id="_139140896"
               class="fil0"
               d="m 80.4436,178.579 c 6.7757,-8.0985 13.4981,-15.9233 14.4382,-16.7955 -0.4976,0.8967 -7.2074,9.077 -13.9842,17.1784 l -0.7018,0.8376 -0.6754,-0.1151 0.9232,-1.1054 z"
               inkscape:connector-curvature="0"
               style="fill:#84c225" /></g><g
             id="g35"><path
               id="_138493936"
               class="fil0"
               d="m 150.901,140.712 c 5.9288,-7.0859 13.7466,-13.4019 15.6293,-13.28 0.8257,1.8414 -4.3461,9.5819 -10.2748,16.6678 -5.9288,7.0858 -9.2316,9.1606 -11.199,8.9971 -0.7293,-1.8732 -0.0842,-5.299 5.8445,-12.3849 z"
               inkscape:connector-curvature="0"
               style="fill:#84c225" /><path
               id="_135422360"
               class="fil0"
               d="m 153.089,143.128 c 5.3872,-6.4386 10.7319,-12.6569 11.48,-13.3515 -0.3974,0.713 -5.7295,7.2169 -11.1166,13.6555 -5.3872,6.4386 -7.6285,8.9597 -8.3956,9.665 0.4511,-0.7702 2.645,-3.5304 8.0322,-9.969 z"
               inkscape:connector-curvature="0"
               style="fill:#84c225" /><path
               id="_140009208"
               class="fil0"
               d="m 142.398,155.77 c 5.3862,-6.4377 10.73,-12.6578 11.4773,-13.3511 -0.3955,0.7127 -5.7293,7.2155 -11.1163,13.6555 l -0.5579,0.6658 -0.5369,-0.0915 0.7338,-0.8787 z"
               inkscape:connector-curvature="0"
               style="fill:#84c225" /></g><g
             id="g40"><path
               id="_20227768"
               class="fil0"
               d="m 57.632,165.066 c 7.0785,-10.457 16.4609,-19.3972 19.0376,-19.4926 1.3781,2.3892 -3.9051,13.9291 -10.9836,24.3861 -7.0786,10.4571 -11.9569,13.4385 -14.6547,13.4891 -1.2514,-2.4459 -0.4779,-7.9255 6.6007,-18.3826 z"
               inkscape:connector-curvature="0"
               style="fill:#84c225" /><path
               id="_142159832"
               class="fil0"
               d="m 60.57,168.78 c 6.432,-9.5018 12.8367,-18.6981 13.7577,-19.7463 -0.4415,1.0245 -6.7895,10.6075 -13.2214,20.1094 -6.432,9.5018 -9.1297,13.2406 -10.075,14.306 0.5066,-1.1099 3.1067,-5.1672 9.5387,-14.6691 z"
               inkscape:connector-curvature="0"
               style="fill:#84c225" /><path
               id="_20227504"
               class="fil0"
               d="m 47.7865,187.452 c 6.4308,-9.5005 12.834,-18.6992 13.754,-19.7456 -0.439,1.0241 -6.7895,10.6057 -13.221,20.1094 l -0.6662,0.9827 -0.7427,-0.05 0.8759,-1.2965 z"
               inkscape:connector-curvature="0"
               style="fill:#84c225" /></g><g
             id="g45"><path
               id="_137751520"
               class="fil0"
               d="m 26.7673,175.788 c 6.3346,-12.2079 16.4287,-22.1931 19.2042,-22.6223 1.793,2.4103 -2.2257,15.6073 -8.5602,27.8153 -6.3346,12.2079 -11.4713,16.0056 -14.3834,16.4016 -1.6632,-2.4877 -2.5951,-9.3866 3.7394,-21.5946 z"
               inkscape:connector-curvature="0"
               style="fill:#84c225" /><path
               id="_137738384"
               class="fil0"
               d="m 20.0243,202.124 c 5.7547,-11.0912 11.5179,-21.8524 12.3807,-23.1008 -0.3453,1.1633 -6.0029,12.3322 -11.7581,23.427 l -0.5964,1.1473 -0.8098,0.0399 0.7836,-1.5134 z"
               inkscape:connector-curvature="0"
               style="fill:#84c225" /><path
               id="_137733968"
               class="fil0"
               d="m 31.491,180.307 c 5.7559,-11.0928 11.521,-21.8517 12.3847,-23.1022 -0.348,1.1642 -6.0028,12.3342 -11.7587,23.427 -5.7559,11.0928 -8.2012,15.4787 -9.0891,16.7509 0.4077,-1.2647 2.7072,-5.9829 8.4631,-17.0757 z"
               inkscape:connector-curvature="0"
               style="fill:#84c225" /></g><g
             id="g50"><path
               id="_137725096"
               class="fil0"
               d="m 114.104,165.442 c 5.9205,-7.0763 11.7944,-13.9133 12.6158,-14.6754 -0.4348,0.7834 -6.2977,7.9312 -12.219,15.01 l -0.6133,0.7319 -0.5901,-0.1006 0.8066,-0.9659 z"
               inkscape:connector-curvature="0"
               style="fill:#84c225" /><path
               id="_137723808"
               class="fil0"
               d="m 124.069,148.463 c 6.5168,-7.7888 14.4923,-14.304 16.5617,-14.17 0.9076,2.0241 -4.9958,10.2354 -11.5127,18.0241 -6.5168,7.7887 -9.9286,10.3663 -12.0912,10.1866 -0.8016,-2.0591 0.5253,-6.252 7.0422,-14.0407 z"
               inkscape:connector-curvature="0"
               style="fill:#84c225" /><path
               id="_20264312"
               class="fil0"
               d="m 125.856,151.546 c 5.9215,-7.0773 11.7964,-13.9123 12.6188,-14.6758 -0.4368,0.7836 -6.2978,7.9327 -12.2194,15.01 -5.9216,7.0773 -8.3851,9.8485 -9.2284,10.6237 0.496,-0.8466 2.9074,-3.8806 8.829,-10.9579 z"
               inkscape:connector-curvature="0"
               style="fill:#84c225" /></g><path
             id="_137704088"
             class="fil1"
             d="m 58.5036,200.148 c 0.1938,0.7433 0.022,2.1716 -0.4944,4.2794 -0.4953,2.1031 -1.3265,4.7467 -2.4494,7.92 -2.229,6.0702 -5.3095,11.0468 -9.248,14.9084 -3.9166,3.8567 -8.6288,6.4909 -14.1081,7.9191 -5.4801,1.4285 -10.1829,1.2252 -14.1146,-0.6306 -3.9526,-1.8504 -6.5022,-5.0194 -7.6703,-9.5008 -1.1238,-4.3112 -0.4499,-8.7742 2.0065,-13.3609 2.4617,-4.5665 6.528,-8.8927 12.2105,-12.9369 4.5886,-3.2829 10.3185,-6.2735 17.191,-8.9723 6.8728,-2.698 17.5732,-5.9408 32.1015,-9.7277 l 13.3811,-3.4879 c 6.0952,-1.5888 11.9115,-3.4681 17.453,-5.6159 0.8913,-0.3227 1.4541,-0.5151 1.6661,-0.5703 0.4458,-0.1162 0.7971,-0.1622 1.053,-0.1385 0.2552,0.0247 0.3948,0.1244 0.4335,0.2727 0.4152,1.593 -1.1972,3.76 -4.8053,6.5377 -3.6298,2.7833 -8.1607,4.8941 -13.6408,6.3226 -3.3979,0.8856 -9.8704,2.0742 -19.3741,3.5536 -9.5256,1.4843 -17.2298,2.994 -23.113,4.5275 -11.8737,3.0949 -21.0632,7.7811 -27.5756,14.038 -6.5119,6.256 -8.9568,12.5417 -7.3125,18.8497 0.8415,3.2286 2.729,5.5948 5.6396,7.1038 2.9062,1.4886 6.2197,1.7588 9.9158,0.7953 5.5648,-1.4505 10.6466,-4.3178 15.2675,-8.6069 4.6263,-4.2682 8.4585,-9.6672 11.5027,-16.1771 0.6366,-1.2998 1.2747,-2.9408 1.9418,-4.9063 0.6671,-1.9655 1.2317,-3.02 1.6775,-3.1362 0.0854,-0.0223 0.16,0.003 0.2297,0.0985 0.0704,0.0953 0.1467,0.3019 0.2353,0.642 z"
             inkscape:connector-curvature="0"
             style="fill:#84c225;fill-rule:nonzero" /><path
             id="_137686304"
             class="fil1"
             d="m 158.045,172.678 c 0.2816,0.7692 1.3077,1.9094 3.0323,3.4512 6.9301,6.1937 14.5508,10.3745 22.4835,10.2602 11.3489,-0.1642 19.6529,-8.832 15.4323,-20.3633 -1.6331,-4.4619 -4.9342,-7.9651 -9.8731,-10.4942 -4.9313,-2.5082 -11.1232,-3.8313 -18.5608,-3.9256 -6.0163,-0.0913 -12.8556,0.7667 -20.5193,2.5746 -7.6635,1.8086 -19.0133,5.4642 -34.0492,10.9675 l -13.8487,5.0687 c -6.3082,2.3089 -12.704,6.0471 -18.8608,7.5494 -0.9806,0.2395 -1.5875,0.4316 -1.807,0.5119 -0.4613,0.1689 -0.798,0.3422 -1.0071,0.5181 -0.2091,0.1759 -0.2706,0.3488 -0.2145,0.5023 0.6034,1.6486 3.4841,0.7009 8.3331,0.9396 4.8711,0.2397 10.1262,-0.6656 15.7979,-2.7414 3.5166,-1.2871 9.9124,-4.1759 19.1422,-8.6506 9.252,-4.4837 16.9227,-7.839 23.0115,-10.0676 12.2885,-4.4977 23.1907,-5.9696 32.6993,-4.4403 9.507,1.5298 13.197,4.4195 15.5865,10.9479 3.8587,10.5427 -4.0841,18.4739 -13.2958,17.9826 -7.5245,-0.4015 -14.5515,-4.7933 -20.8303,-9.4516 -1.7752,-1.3163 -2.2326,-2.2399 -2.694,-2.071 -0.0884,0.0323 -0.1382,0.1006 -0.1416,0.2258 -0.003,0.1261 0.0547,0.3537 0.1836,0.7058 z"
             inkscape:connector-curvature="0"
             style="fill:#84c225;fill-rule:nonzero" /><g
             id="g57"><path
               id="_20267752"
               class="fil0"
               d="m 168.012,152.774 c 6.7743,-2.5928 13.3867,-5.2203 14.1967,-5.646 -0.6535,0.1111 -7.4449,2.6365 -14.2211,5.2292 l -0.701,0.2688 -0.1986,0.5007 0.924,-0.3527 z"
               inkscape:connector-curvature="0"
               style="fill:#84c225" /><path
               id="_20271856"
               class="fil0"
               d="m 181.888,150.297 c 7.4565,-2.854 15.3206,-7.6176 16.1465,-9.3075 -0.8001,-1.3317 -8.3181,0.6427 -15.7746,3.4968 -7.4564,2.854 -10.393,5.0626 -11.2325,6.8405 0.8671,1.2578 3.4042,1.8243 10.8606,-1.0298 z"
               inkscape:connector-curvature="0"
               style="fill:#84c225" /><path
               id="_137681896"
               class="fil0"
               d="m 181.369,147.582 c 6.7753,-2.5933 13.387,-5.2222 14.1982,-5.6483 -0.6545,0.1127 -7.4458,2.6361 -14.2212,5.2295 -6.7753,2.5933 -9.4916,3.7242 -10.3189,4.1635 0.7176,-0.1409 3.5665,-1.1514 10.3419,-3.7447 z"
               inkscape:connector-curvature="0"
               style="fill:#84c225" /></g></g><g
           id="g62"><g
             id="g64"><path
               id="_137820672"
               class="fil0"
               d="m 133.153,159.808 c 1.6837,-2.1953 3.3623,-4.3715 4.9695,-6.4393 l 0.7228,0.1292 c -1.655,2.1739 -3.3979,4.4541 -5.148,6.7338 l -0.7744,1.0078 -0.7934,-0.1025 1.0235,-1.329 z"
               inkscape:connector-curvature="0"
               style="fill:#84c225" /><ellipse
               id="_136221088"
               class="fil0"
               transform="matrix(3.15049,-3.64526,3.64526,3.15049,138.173,152.606)"
               rx="1.073"
               ry="0.77700001"
               cx="0"
               cy="0"
               style="fill:#84c225" /></g><g
             id="g68"><ellipse
               id="_137673512"
               class="fil0"
               transform="matrix(4.1301,-2.48108,2.48108,4.1301,166.87,146.962)"
               rx="1.073"
               ry="0.77700001"
               cx="0"
               cy="0"
               style="fill:#84c225" /><path
               id="_137863744"
               class="fil0"
               d="m 157.985,152.472 c 2.2843,-1.5608 4.5578,-3.105 6.7296,-4.5685 l 0.6466,0.3481 c -2.2504,1.5495 -4.6174,3.1724 -6.9911,4.7927 l -1.0501,0.7161 -0.7219,-0.3448 1.3869,-0.9436 z"
               inkscape:connector-curvature="0"
               style="fill:#84c225" /></g><g
             id="g72"><ellipse
               id="_136038360"
               class="fil0"
               transform="matrix(3.5344,1.24561,-1.24561,3.5344,171.552,157.704)"
               rx="1.073"
               ry="0.77700001"
               cx="0"
               cy="0"
               style="fill:#84c225" /><path
               id="_137643896"
               class="fil0"
               d="m 163.966,154.603 c 2.0679,0.5955 4.1204,1.1927 6.0742,1.7689 l 0.1118,0.5602 c -2.0442,-0.5808 -4.1903,-1.195 -6.3381,-1.8146 l -0.9498,-0.2744 -0.1512,-0.6036 1.2531,0.3635 z"
               inkscape:connector-curvature="0"
               style="fill:#84c225" /></g></g><g
           id="g76"><path
             id="_20423808"
             class="fil0"
             d="m 29.3983,198.069 c 2.6605,0.7589 5.3013,1.5203 7.815,2.2549 l 0.1456,0.7198 c -2.6301,-0.7402 -5.3912,-1.5231 -8.1546,-2.3128 l -1.2219,-0.3498 -0.1963,-0.7755 1.6122,0.4634 z"
             inkscape:connector-curvature="0"
             style="fill:#84c225" /><ellipse
             id="_135395528"
             class="fil0"
             transform="matrix(4.54805,1.59021,-1.59021,4.54805,37.9416,200.09)"
             rx="1.073"
             ry="0.77700001"
             cx="0"
             cy="0"
             style="fill:#84c225" /></g><g
           id="g80"><path
             id="_135592064"
             class="fil0"
             d="m 17.2798,204.904 c -0.0513,-2.5675 -0.0951,-5.1183 -0.128,-7.549 l 0.599,-0.3253 c 0.0597,2.5355 0.1172,5.1989 0.1692,7.8662 l 0.0225,1.1795 -0.6348,0.3855 -0.0279,-1.5569 z"
             inkscape:connector-curvature="0"
             style="fill:#84c225" /><ellipse
             id="_135699104"
             class="fil0"
             transform="matrix(-1.14887,-4.32222,4.32222,-1.14887,16.4925,196.43)"
             rx="1.073"
             ry="0.77700001"
             cx="0"
             cy="0"
             style="fill:#84c225" /></g></g><path
         id="_138906608"
         class="fil1"
         d="m 80.1179,210.055 c 0,7.5443 -1.9452,12.3652 -5.8358,14.4627 -1.59,0.8457 -3.5353,1.2686 -5.8358,1.2686 l -4.8716,-3.1462 0,11.3164 -6.597,0 0,-37.4 12.991,0 c 3.9244,0 6.597,1.108 8.0179,3.3239 1.4209,2.2159 2.1313,5.6074 2.1313,10.1746 z m -6.597,1.0149 c 0,-5.7174 -1.8268,-8.5761 -5.4806,-8.5761 l -4.4656,0 0,13.4478 4.4656,2.8925 c 1.9622,0 3.3662,-0.6174 4.212,-1.8523 0.8457,-1.2348 1.2686,-3.2054 1.2686,-5.9119 z"
         inkscape:connector-curvature="0"
         style="fill:#84c225;fill-rule:nonzero" /><path
         id="path85"
         class="fil1"
         d="m 90.7494,185.291 c 1.5901,0 2.6219,0.2453 3.0955,0.7359 0.4737,0.4905 0.7105,1.5224 0.7105,3.0955 0,1.5731 -0.2453,2.605 -0.7358,3.0955 -0.4906,0.4906 -1.5224,0.7358 -3.0956,0.7358 -1.5731,0 -2.6049,-0.2537 -3.0955,-0.7612 -0.4905,-0.5074 -0.7358,-1.5393 -0.7358,-3.0955 0,-1.5562 0.2453,-2.5796 0.7358,-3.0701 0.4906,-0.4906 1.5309,-0.7359 3.1209,-0.7359 z m 3.2478,40.0388 -6.597,0 0,-27.9104 6.597,0 0,27.9104 z"
         inkscape:connector-curvature="0"
         style="fill:#84c225;fill-rule:nonzero" /><path
         id="path87"
         class="fil1"
         d="m 121.679,225.33 -15.7821,0 c -1.7254,0 -3.0532,-0.3637 -3.9836,-1.091 -0.9303,-0.7274 -1.3955,-1.7508 -1.3955,-3.0702 0,-1.3194 0.5582,-2.7065 1.6746,-4.1612 l 12.0776,-14.9701 -12.0776,0 0,-5.6836 19.994,0 0,5.0239 -14.4119,18.2686 13.9045,0 0,5.6836 z"
         inkscape:connector-curvature="0"
         style="fill:#84c225;fill-rule:nonzero" /><path
         id="path89"
         class="fil1"
         d="m 147.941,225.33 -15.7821,0 c -1.7254,0 -3.0532,-0.3637 -3.9836,-1.091 -0.9303,-0.7274 -1.3955,-1.7508 -1.3955,-3.0702 0,-1.3194 0.5582,-2.7065 1.6746,-4.1612 l 12.0776,-14.9701 -12.0776,0 0,-5.6836 19.994,0 0,5.0239 -14.4119,18.2686 13.9045,0 0,5.6836 z"
         inkscape:connector-curvature="0"
         style="fill:#84c225;fill-rule:nonzero" /><path
         id="path91"
         class="fil1"
         d="m 175.826,225.33 -4.4149,0 -2.0298,-3.5015 -7.0538,3.806 c -3.9243,0 -6.5631,-1.4209 -7.9164,-4.2627 -0.6766,-1.3871 -1.1418,-2.8841 -1.3955,-4.491 -0.2537,-1.607 -0.3806,-3.2816 -0.3806,-5.0239 0,-1.7423 0.0169,-3.0279 0.0508,-3.8567 0.0338,-0.8289 0.1184,-1.7931 0.2537,-2.8926 0.1353,-1.0995 0.3298,-2.0214 0.5836,-2.7656 0.2537,-0.7443 0.6174,-1.514 1.091,-2.309 0.4736,-0.795 1.0488,-1.4293 1.7254,-1.903 1.5224,-1.0487 3.5015,-1.5731 5.9373,-1.5731 l 6.9522,0 6.597,-0.406 0,29.1791 z m -6.597,-9.2358 0,-13.6 -5.0239,0 c -1.8606,0 -3.1547,0.7105 -3.882,2.1314 -0.7274,1.4208 -1.0911,3.5437 -1.0911,6.3686 0,2.8249 0.3468,4.8124 1.0403,5.9627 0.6936,1.1502 2.0045,1.7253 3.9328,1.7253 l 5.0239,-2.588 z"
         inkscape:connector-curvature="0"
         style="fill:#84c225;fill-rule:nonzero" /><path
         id="_138623792"
         class="fil2"
         d="m 18.3122,150.869 c 0,-7.3616 0,-14.733 0,-22.0943 0,-7.3624 0,-14.7333 0,-22.1048 0,-7.3617 0,-14.7322 0,-22.0947 0,-7.3613 0,-14.7418 0,-22.113 4.0174,-0.0092 8.154,-0.0296 12.2571,-0.0453 2.843,-0.0104 5.0016,0.4915 6.4691,1.4811 1.4769,0.995 2.6016,2.6992 3.3887,5.1213 0.4039,1.245 0.7393,2.5717 0.9866,4.0056 0.2457,1.4188 0.486,3.3847 0.6643,5.8629 0.1779,2.4873 0.3149,5.7068 0.3746,9.6663 0.0588,3.9506 0.1026,9.0903 0.1026,15.3906 0,6.448 -0.0427,11.6873 -0.1368,15.7026 -0.0926,3.9684 -0.2104,7.2334 -0.3747,9.7946 -0.1593,2.496 -0.3762,4.4995 -0.6633,6.0175 -0.2745,1.4537 -0.5887,2.8232 -0.9533,4.1068 -0.3673,1.2861 -0.8021,2.4409 -1.379,3.4465 -0.5292,0.9234 -1.2121,1.7535 -2.0097,2.424 -0.7342,0.6184 -1.702,1.1907 -2.7574,1.6462 -1.0032,0.4316 -2.2992,0.8381 -3.7117,1.1436 -4.1201,0.8917 -8.2397,1.7829 -12.2571,2.6425 z m 12.0359,-17.3394 c 0.9189,-0.1646 1.6172,-0.5127 1.9749,-0.9236 0.4081,-0.467 0.7092,-1.2453 0.919,-2.295 0.1469,-0.7329 0.2658,-1.5369 0.3239,-2.4332 0.0599,-0.9237 0.1461,-2.2767 0.2038,-4.0145 0.0601,-1.7926 0.1202,-4.1796 0.1371,-7.2154 0.0168,-3.0359 0.0331,-7.0327 0.0331,-11.9799 0,-4.8745 -0.0171,-8.8166 -0.0331,-11.8522 -0.0175,-3.0364 -0.0603,-5.4605 -0.1026,-7.2527 -0.042,-1.792 -0.1113,-3.1636 -0.2037,-4.0877 -0.095,-0.9415 -0.2054,-1.738 -0.3585,-2.4047 -0.2203,-0.9611 -0.5289,-1.6179 -0.9531,-1.9851 -0.4097,-0.3546 -1.0557,-0.5284 -1.9408,-0.4933 -1.2254,0.047 -2.4344,0.1002 -3.6429,0.1453 0,4.7928 0,9.5847 0,14.3773 0,4.782 0,9.5652 0,14.3575 0,4.7828 0,9.5747 0,14.3577 0,4.792 0,9.5748 0,14.3582 1.2085,-0.2193 2.4175,-0.4397 3.6429,-0.6587 z m 34.6959,2.1576 c -0.7644,2.5567 -1.8758,4.4709 -3.3877,5.762 -1.4325,1.2227 -3.6074,2.1567 -6.4013,2.7714 -2.8581,0.6289 -5.0302,0.677 -6.5206,0.0275 -1.4891,-0.6487 -2.6186,-2.1731 -3.3531,-4.5725 -0.3546,-1.1577 -0.676,-2.4857 -0.9542,-3.9147 -0.2831,-1.4515 -0.5195,-3.4374 -0.6975,-5.9528 -0.1795,-2.533 -0.3151,-5.8713 -0.3741,-9.978 -0.0599,-4.1333 -0.103,-9.4473 -0.103,-15.9579 0,-6.5209 0.0431,-11.8446 0.103,-15.9309 0.0595,-4.1066 0.1974,-7.4725 0.3741,-10.0053 0.1802,-2.5882 0.4244,-4.6091 0.6975,-6.0449 0.2882,-1.5095 0.5858,-2.9108 0.9542,-4.1793 0.7558,-2.6085 1.9336,-4.353 3.3531,-5.3134 1.4577,-0.9863 3.6095,-1.5092 6.5206,-1.5092 2.7921,0 4.9327,0.5287 6.4013,1.4633 1.4759,0.9399 2.6287,2.5825 3.3877,5.0117 0.3815,1.2192 0.6732,2.5444 0.9529,3.9142 0.281,1.3735 0.5024,3.2473 0.6644,5.661 0.1613,2.3867 0.281,5.5146 0.3744,9.365 0.0931,3.8408 0.136,8.8159 0.136,14.9334 0,6.1181 -0.0423,11.1206 -0.136,15.0166 -0.0926,3.8594 -0.2108,7.0331 -0.3744,9.502 -0.1588,2.4047 -0.3745,4.3531 -0.6644,5.8618 -0.2712,1.4181 -0.5767,2.8125 -0.9529,4.069 z m -6.9625,-8.5226 c 0.1303,-0.7413 0.2503,-1.5736 0.3399,-2.4328 0.0969,-0.933 0.1629,-2.2591 0.2045,-3.9871 0.0432,-1.7741 0.0937,-4.1616 0.1022,-7.0879 0.0085,-2.9446 0.0339,-6.886 0.0339,-11.8064 0,-4.9926 -0.0254,-8.9987 -0.0339,-12.0165 -0.0085,-3.0262 -0.0774,-5.4049 -0.1366,-7.1147 -0.0595,-1.719 -0.1436,-3.0179 -0.2041,-3.8963 -0.0584,-0.8676 -0.1813,-1.6257 -0.3059,-2.2498 -0.1976,-0.985 -0.4958,-1.6717 -0.9025,-2.0851 -0.3936,-0.4002 -1.0557,-0.5881 -1.924,-0.5575 -0.9191,0.0326 -1.5484,0.2109 -1.9754,0.6493 -0.3555,0.3663 -0.6731,1.078 -0.8681,2.1218 -0.1276,0.6832 -0.2423,1.4722 -0.3401,2.3781 -0.0882,0.8134 -0.1786,2.1938 -0.238,3.9778 -0.0597,1.7552 -0.1282,4.2338 -0.136,7.316 -0.0087,3.0453 -0.0353,7.1611 -0.0353,12.2546 0,5.0112 0.0181,9.0359 0.0353,12.0803 0.0165,3.0369 0.0763,5.424 0.136,7.1703 0.0586,1.7375 0.1439,3.0467 0.238,3.933 0.0928,0.8788 0.2066,1.6666 0.3401,2.3502 0.1894,0.9629 0.4904,1.622 0.8681,1.9382 0.3886,0.3241 1.057,0.3975 1.9754,0.2287 0.8688,-0.1601 1.5504,-0.52 1.924,-0.9424 0.4268,-0.4831 0.7274,-1.2349 0.9025,-2.2218 z m 37.776,6.9313 c 0,-4.1414 0,-8.2842 0,-12.4183 0,-4.143 0,-8.2859 0,-12.4284 0,-4.1338 0,-8.2768 0,-12.4101 0,-4.1423 0,-8.2944 0,-12.4376 -0.1183,0.009 -0.2379,0.0186 -0.3397,0.0275 -0.1021,1.2713 -0.2248,2.5514 -0.4082,3.9324 -0.1735,1.3074 -0.4158,2.6238 -0.6306,3.96 -0.5675,3.5287 -1.1238,7.1425 -1.6674,10.7271 -0.5453,3.5933 -1.0713,7.1864 -1.6182,10.8192 -0.5423,3.6102 -1.0969,7.2598 -1.6342,10.9187 -0.5351,3.6386 -1.0903,7.3443 -1.6337,11.0197 -1.2943,0.2845 -2.5708,0.5497 -3.8478,0.8329 -0.5621,-3.5021 -1.1517,-7.0222 -1.6864,-10.5445 -0.5377,-3.5463 -1.1173,-7.1142 -1.6677,-10.6628 -0.5557,-3.5834 -1.1239,-7.161 -1.668,-10.7637 -0.5451,-3.604 -1.1246,-7.2318 -1.6692,-10.8652 -0.1871,-1.2498 -0.3745,-2.5786 -0.5614,-3.9598 -0.188,-1.39 -0.3229,-2.7617 -0.4088,-4.0877 -0.1193,0.0088 -0.2379,0.0182 -0.34,0.0268 0,4.3805 0,8.7799 0,13.1511 0,4.381 0,8.7702 0,13.1515 0,4.3801 0,8.7696 0,13.1501 0,4.3712 0,8.7614 0,13.1418 -2.5548,0.5485 -5.1079,1.1068 -7.6614,1.6555 0,-6.4753 0,-12.959 0,-19.4337 0,-6.4747 0,-12.9595 0,-19.4428 0,-6.4745 0,-12.9588 0,-19.4336 0,-6.4749 0,-12.9585 0,-19.4428 4.1709,-0.0184 8.3594,-0.0369 12.5466,-0.0457 0.5622,4.527 1.1653,9.0277 1.7202,13.5169 0.551,4.4636 1.1504,8.9359 1.7355,13.3792 0.3171,2.397 0.5618,4.3998 0.7497,6.0179 0.1868,1.6097 0.3574,3.2193 0.4936,4.8379 0.1362,-0.0091 0.2725,-0.0272 0.4088,-0.0457 0.1363,-1.6463 0.3188,-3.3115 0.5107,-4.9292 0.1997,-1.6837 0.4824,-3.7251 0.8004,-6.119 0.6009,-4.5183 1.2284,-8.9915 1.8218,-13.4154 0.5981,-4.4648 1.2254,-8.871 1.8378,-13.2879 4.1541,-0.0093 8.3081,-0.0277 12.4791,-0.0454 0,5.8616 0,11.7332 0,17.5858 0,5.853 0,11.7058 0,17.5586 0,5.8619 0,11.7237 0,17.5769 0,5.8535 0,11.7153 0,17.568 -2.5536,0.5584 -5.1073,1.1072 -7.6615,1.6638 z m 9.7896,-2.1301 c 0,-5.8162 0,-11.6326 0,-17.4487 0,-5.8167 0,-11.6424 0,-17.4588 0,-5.8156 0,-11.6411 0,-17.4578 0,-5.8168 0,-11.6422 0,-17.4668 2.8943,-0.0093 5.7881,-0.0185 8.6995,-0.0278 0,5.6704 0,11.3404 0,17.0008 0,5.6603 0,11.3304 0,16.9915 0,5.6698 0,11.3399 0,17.0009 0,5.6607 0,11.3309 0,16.9919 -2.9114,0.6314 -5.8052,1.2535 -8.6995,1.8748 z m 30.474,-6.5935 c -0.9701,-3.0456 -1.9609,-6.1084 -2.911,-9.209 -0.9559,-3.1175 -1.9357,-6.2617 -2.8944,-9.411 -0.9643,-3.169 -1.9448,-6.3731 -2.8941,-9.593 -0.9566,-3.2449 -1.924,-6.5118 -2.8776,-9.7949 -0.119,0.0094 -0.2378,0.0183 -0.3397,0.0275 0,3.384 0,6.7675 0,10.1519 0,3.3836 0,6.7573 0,10.1324 0,3.3839 0,6.7677 0,10.1425 0,3.3831 0,6.7671 0,10.1412 -2.5875,0.558 -5.1589,1.1165 -7.7292,1.6739 0,-5.6238 0,-11.258 0,-16.8821 0,-5.6239 0,-11.2575 0,-16.8816 0,-5.6245 0,-11.2577 0,-16.8825 0,-5.6238 0,-11.2573 0,-16.891 2.9288,-0.009 5.8733,-0.0272 8.8183,-0.0363 1.1746,4.6544 2.3621,9.2648 3.5413,13.837 1.1698,4.5364 2.3837,9.0438 3.5753,13.5065 0.1021,-0.0091 0.221,-0.0176 0.3401,-0.0265 0,-4.5551 0,-9.1279 0,-13.6723 0,-4.5549 0,-9.1092 0,-13.6718 2.6051,-0.0093 5.1929,-0.0185 7.7976,-0.028 0,5.2034 0,10.4159 0,15.6103 0,5.1947 0,10.398 0,15.6026 0,5.2034 0,10.4073 0,15.6019 0,5.1934 0,10.407 0,15.6003 -1.4818,0.3115 -2.9625,0.6411 -4.4266,0.952 z m 27.4437,-9.6579 c -0.7677,1.9113 -1.8939,3.3883 -3.3714,4.4082 -1.4497,1.001 -3.558,1.7818 -6.4172,2.4146 -2.8437,0.6291 -5.0238,0.7879 -6.5209,0.3841 -1.4819,-0.4003 -2.5958,-1.4877 -3.3369,-3.2284 -0.3651,-0.8559 -0.6923,-1.8077 -0.9707,-2.8617 -0.2836,-1.0766 -0.5019,-2.5516 -0.6808,-4.4272 -0.1784,-1.8824 -0.2986,-4.3712 -0.3746,-7.4441 -0.0763,-3.0816 -0.1193,-7.0505 -0.1193,-11.925 0,-4.8747 0.0432,-8.8712 0.1193,-11.9169 0.0764,-3.0728 0.1987,-5.5882 0.3746,-7.4802 0.1817,-1.9484 0.4089,-3.4663 0.6808,-4.5268 0.2893,-1.1251 0.5943,-2.1867 0.9707,-3.1278 0.7803,-1.9489 1.9185,-3.2558 3.3369,-3.9685 1.493,-0.7504 3.6263,-1.1255 6.5209,-1.1255 2.8595,0 4.9675,0.4001 6.4172,1.079 1.4612,0.6837 2.6031,1.8946 3.3714,3.6673 0.3894,0.8976 0.6965,1.8572 0.9705,2.8629 0.2706,0.9963 0.5013,2.3689 0.6635,4.1336 0.1613,1.7464 0.2811,4.0339 0.375,6.8496 0.093,2.7986 0.1359,6.4476 0.1359,10.9196 0,4.4719 -0.0426,8.1299 -0.1359,10.983 -0.0932,2.8345 -0.2118,5.1572 -0.375,6.9687 -0.1601,1.7733 -0.3838,3.2078 -0.6635,4.3253 -0.2651,1.0588 -0.5811,2.0669 -0.9705,3.0362 z m -6.9291,-5.9254 c 0.1287,-0.5379 0.2343,-1.172 0.3241,-1.8017 0.0972,-0.6952 0.1615,-1.6742 0.203,-2.954 0.0429,-1.3078 0.0778,-3.0734 0.103,-5.2313 0.0253,-2.1761 0.0338,-5.0756 0.0338,-8.7057 0,-3.6863 -0.008,-6.6398 -0.0338,-8.8616 -0.0252,-2.2314 -0.0781,-3.9873 -0.1365,-5.2407 -0.0597,-1.2708 -0.1279,-2.2302 -0.2039,-2.8712 -0.0769,-0.648 -0.1673,-1.2089 -0.2897,-1.6557 -0.2004,-0.732 -0.4948,-1.2342 -0.9198,-1.5363 -0.4088,-0.2915 -1.0552,-0.4206 -1.9397,-0.3934 -0.8862,0.0274 -1.5303,0.1675 -1.9584,0.5032 -0.3538,0.2771 -0.6718,0.8032 -0.8685,1.5821 -0.1264,0.5011 -0.2427,1.0973 -0.3407,1.7647 -0.0885,0.6121 -0.178,1.6279 -0.2383,2.9543 -0.0584,1.3066 -0.1109,3.1456 -0.1357,5.4322 -0.0257,2.2675 -0.0343,5.3132 -0.0343,9.0904 0,3.7219 0.009,6.7127 0.0343,8.9713 0.0248,2.2499 0.0766,4.0249 0.1357,5.3135 0.0601,1.289 0.1454,2.2599 0.2383,2.9076 0.0934,0.6421 0.2047,1.2298 0.3407,1.7379 0.1874,0.6993 0.4914,1.1743 0.8685,1.3903 0.3884,0.2228 1.0716,0.2329 1.9584,0.0729 0.8834,-0.1596 1.5495,-0.4385 1.9397,-0.7776 0.4433,-0.3831 0.7426,-0.9483 0.9198,-1.6912 z m 23.6981,-31.1854 c 0.0335,-0.384 0.0771,-0.851 0.1022,-1.3259 0.0261,-0.5129 0.0332,-1.1798 0.0332,-2.0306 0,-2.0936 -0.1971,-3.5616 -0.5954,-4.4355 -0.3853,-0.8456 -1.3107,-1.2688 -2.7917,-1.2251 -0.6465,0.0188 -1.141,0.0908 -1.5838,0.2373 -0.3572,0.1184 -0.7324,0.3927 -1.0042,0.8693 -0.2382,0.4195 -0.4314,1.0424 -0.5107,1.8473 -0.0736,0.7583 -0.137,1.8285 -0.137,3.1461 0,1.1701 0.009,2.0943 0.0344,2.7798 0.026,0.6766 0.095,1.2359 0.1714,1.6644 0.0763,0.4316 0.2191,0.7797 0.408,1.0334 0.1852,0.2484 0.46,0.5397 0.834,0.8414 0.5451,0.4388 1.2241,0.891 1.992,1.3171 0.7813,0.4333 1.6323,0.8384 2.4855,1.207 0.8824,0.3806 1.7372,0.7407 2.5196,1.1065 0.8003,0.374 1.4812,0.7234 2.0259,1.0336 0.834,0.4756 1.5331,0.9686 2.0427,1.4536 0.5286,0.5024 0.9609,1.1841 1.2772,2.0492 0.3125,0.8541 0.5368,2.0124 0.6468,3.4386 0.1111,1.4358 0.2731,3.311 0.2731,5.6519 0,3.2182 -0.2956,5.8888 -0.6814,8.0295 -0.3792,2.102 -1.0268,3.8375 -1.924,5.2034 -0.873,1.331 -2.0408,2.3824 -3.5584,3.1544 -1.4098,0.7185 -3.303,1.3133 -5.5156,1.8022 -1.924,0.4252 -3.5587,0.6448 -4.9027,0.5667 -1.3288,-0.0766 -2.4288,-0.5199 -3.3032,-1.3625 -0.8612,-0.8303 -1.499,-2.1396 -1.889,-3.8858 -0.3931,-1.7561 -0.596,-4.1066 -0.596,-7.0698 0,-1.2074 0.0452,-2.3515 0.1355,-3.338 0.0963,-1.0432 0.2046,-1.8845 0.358,-2.6066 2.3662,-0.3475 4.7327,-0.6854 7.0989,-1.0331 -0.1021,0.4024 -0.1362,0.8679 -0.1362,1.4073 0,0.54 0,1.1526 0,1.8292 0,1.5088 0.06,2.7272 0.1699,3.6315 0.1113,0.906 0.2902,1.5909 0.5455,2.0569 0.2549,0.4668 0.6112,0.7489 1.0384,0.8328 0.4577,0.0895 0.9707,0.0727 1.6169,-0.0456 0.6982,-0.1287 1.3088,-0.3261 1.72,-0.531 0.5071,-0.2523 0.848,-0.6507 1.1056,-1.1701 0.2871,-0.5775 0.4888,-1.3454 0.5968,-2.3137 0.1126,-1.0156 0.1704,-2.3412 0.1704,-4.0512 0,-0.9976 -0.01,-1.8022 -0.0344,-2.3785 -0.0254,-0.5936 -0.097,-1.0846 -0.2047,-1.463 -0.1125,-0.3988 -0.2966,-0.7167 -0.4935,-0.9694 -0.1947,-0.2496 -0.4466,-0.5719 -0.7824,-0.8964 -0.5837,-0.5623 -1.3477,-1.039 -2.2479,-1.5088 -0.9037,-0.4714 -1.8219,-0.9145 -2.7913,-1.3349 -0.9711,-0.4206 -1.9091,-0.8747 -2.8264,-1.363 -0.9046,-0.48 -1.7073,-1.0192 -2.3495,-1.5916 -0.5486,-0.4884 -1.0103,-1.0198 -1.379,-1.5815 -0.3636,-0.5532 -0.64,-1.3429 -0.8511,-2.3232 -0.2135,-0.9848 -0.3668,-2.2772 -0.4255,-3.8676 -0.0594,-1.6005 -0.1023,-3.7048 -0.1023,-6.3199 0,-2.7064 0.2008,-4.9851 0.5618,-6.7491 0.3705,-1.8116 0.9862,-3.2295 1.8222,-4.2608 0.8662,-1.0719 2.0077,-1.8063 3.3701,-2.2143 1.4456,-0.4335 3.1491,-0.6583 5.2096,-0.6583 2.1615,0 3.9673,0.2455 5.3456,0.631 1.3965,0.3913 2.5156,1.0564 3.3198,1.948 0.8128,0.9006 1.352,2.0695 1.6508,3.5212 0.2972,1.4377 0.4428,3.229 0.4428,5.3502 0,1.4718 -0.0406,2.615 -0.1016,3.4935 -0.0578,0.8316 -0.1874,1.6188 -0.3747,2.2765 -2.3492,0.1646 -4.6989,0.3291 -7.031,0.494 z"
         inkscape:connector-curvature="0"
         style="fill:#db2132;fill-rule:nonzero;fill-opacity:1" /></g></g></svg>