<svg xmlns="http://www.w3.org/2000/svg" width="107" height="139" viewBox="0 0 107 139">
  <defs>
    <style>
      .cls-1 {
        fill: #b3b3b3;
        fill-rule: evenodd;
      }
    </style>
  </defs>
  <path id="icon_txt-doc.svg" class="cls-1" d="M4830.42,1477.97H4813a6,6,0,0,1-6-6v-17.42a1,1,0,0,1,2,0v17.42a4,4,0,0,0,4,4h17.42A1,1,0,0,1,4830.42,1477.97Zm0-2H4813a4,4,0,0,1-4-4v-17.42a1,1,0,0,0-2,0v17.42a6,6,0,0,0,6,6h17.42A1,1,0,0,0,4830.42,1475.97Zm8.36-7.03-22.73-22.72a10.882,10.882,0,0,0-7.77-3.22H4741a6,6,0,0,0-6,6v127a6,6,0,0,0,6,6h95a6.018,6.018,0,0,0,6-6v-99.28A10.922,10.922,0,0,0,4838.78,1468.94ZM4840,1576a4,4,0,0,1-4,4h-95a4,4,0,0,1-4-4V1449a4,4,0,0,1,4-4h67.28a9.026,9.026,0,0,1,6.36,2.64l22.72,22.72a8.967,8.967,0,0,1,2.64,6.36V1576Zm-32.75-70h-37.49a1,1,0,0,0-1.01,1h0a1,1,0,0,0,1.01,1h37.49A1,1,0,0,0,4807.25,1506Zm0,10h-37.49a1,1,0,0,0-1.01,1h0a1,1,0,0,0,1.01,1h37.49A1,1,0,0,0,4807.25,1516Zm0,10h-37.49a1,1,0,0,0-1.01,1h0a1,1,0,0,0,1.01,1h37.49A1,1,0,0,0,4807.25,1526Zm0,10h-37.49a1,1,0,0,0-1.01,1h0a1,1,0,0,0,1.01,1h37.49A1,1,0,0,0,4807.25,1536Zm-15.24,10h-22.25a1,1,0,0,0-1.01,1h0a1,1,0,0,0,1.01,1h22.25A1,1,0,0,0,4792.01,1546Z" transform="translate(-4735 -1443)"/>
</svg>
